# xmcd CD database file
#
# Track frame offsets:
#	150
#	18445
#	41542
#
# Disc length: 795 seconds
#
# Revision: 3
# Processed by: cddbd v1.5PL3 Copyright (c) Steve Scherf et al.
# Submitted via: CDex 1.50
#
DISCID=1a031903
DTITLE=m.c.A.T. - 風に叫ぶ 〜Energy Guyのテーマ〜
DYEAR=1994
DGENRE=JPop
TTITLE0=風に叫ぶ 〜Energy Guyのテーマ〜
TTITLE1=From Summer Time...it's All Right...
TTITLE2=風に叫ぶ 〜Energy Guyのテーマ〜 (Original Karaoke)
EXTD=YEAR: 1994
EXTT0=
EXTT1=
EXTT2=
PLAYORDER=
